<svg width="650" height="604" viewBox="0 0 650 604" fill="none" xmlns="http://www.w3.org/2000/svg">
<mask id="mask0_464_20" style="mask-type:alpha" maskUnits="userSpaceOnUse" x="0" y="0" width="650" height="604">
<path d="M0 0H650V604H0V0Z" fill="#F7F2EF"/>
</mask>
<g mask="url(#mask0_464_20)">
<path fill-rule="evenodd" clip-rule="evenodd" d="M439.97 352.631C514.969 286.071 523.581 109.416 623.424 118.325C707.403 125.819 604.765 285.643 619.778 368.676C626.05 403.365 675.665 417.132 683.659 451.464C691.666 485.852 652.577 520.425 662.97 554.167C682.275 616.847 759.621 653.892 766.109 719.161C772.052 778.95 748.242 853.937 695.645 882.905C640.411 913.324 560.649 897.745 509.955 860.234C452.142 817.457 456.576 726.442 410.051 671.582C395.407 654.316 362.895 675.221 343.357 663.794C323.794 652.353 324.778 617.879 303.756 609.417C239.02 583.36 154.648 611.28 101.242 566.34C59.6384 531.332 17.185 433.845 65.5076 408.939C148.914 365.951 249.773 460.169 341.878 442.314C372.427 436.392 337.396 372.784 360.37 351.779C380.177 333.669 419.897 370.445 439.97 352.631Z" fill="#F84817" stroke="#F84817" stroke-width="10"/>
</g>
</svg>
