<svg width="573" height="582" viewBox="0 0 573 582" fill="none" xmlns="http://www.w3.org/2000/svg">
<mask id="mask0_464_26" style="mask-type:alpha" maskUnits="userSpaceOnUse" x="0" y="0" width="573" height="582">
<path d="M0 0H573V582H0V0Z" fill="#F7F2EF"/>
</mask>
<g mask="url(#mask0_464_26)">
<path fill-rule="evenodd" clip-rule="evenodd" d="M138.165 33.2082C208.694 32.769 280.889 -12.9899 341.455 23.1788C411.788 65.1802 490.47 149.751 462.035 226.616C432.119 307.48 296.58 263.492 231.603 320.122C176.597 368.06 209.843 495.356 138.165 508.877C70.2191 521.694 38.7303 421.75 1.31977 363.56C-25.6672 321.584 -34.0243 275.658 -43.304 226.616C-56.3079 157.893 -110.454 76.6858 -62.6112 25.6953C-14.9548 -25.0965 68.5442 33.6418 138.165 33.2082Z" fill="#F84817" stroke="#F84817" stroke-width="10"/>
</g>
</svg>
