<svg width="20" height="21" viewBox="0 0 20 21" fill="none" xmlns="http://www.w3.org/2000/svg">
<path d="M10.4639 20.5C14.1829 20.5 17.5269 18.465 19.2729 15.186L11.4639 10.5L19.2729 5.814C17.5269 2.535 14.1829 0.5 10.4639 0.5C4.94987 0.5 0.463867 4.986 0.463867 10.5C0.463867 16.014 4.94987 20.5 10.4639 20.5ZM9.96387 4.5C10.3618 4.50013 10.7434 4.65835 11.0247 4.93984C11.306 5.22133 11.464 5.60304 11.4639 6.001C11.4637 6.39896 11.3055 6.78056 11.024 7.06187C10.7425 7.34317 10.3608 7.50113 9.96287 7.501C9.56491 7.50087 9.1833 7.34265 8.902 7.06116C8.62069 6.77967 8.46273 6.39796 8.46287 6C8.463 5.60204 8.62121 5.22044 8.90271 4.93913C9.1842 4.65783 9.56591 4.49987 9.96387 4.5Z" fill="white"/>
</svg>
