<svg width="17" height="21" viewBox="0 0 17 21" fill="none" xmlns="http://www.w3.org/2000/svg">
<path d="M15.3526 0.5C15.6247 0.500036 15.8874 0.599957 16.0908 0.780812C16.2942 0.961667 16.4241 1.21088 16.456 1.48117L16.4637 1.61118V19.3901C16.4634 19.6733 16.355 19.9457 16.1606 20.1516C15.9661 20.3576 15.7004 20.4815 15.4177 20.4981C15.135 20.5147 14.8566 20.4227 14.6394 20.2409C14.4222 20.0591 14.2826 19.8013 14.2492 19.5201L14.2414 19.3901V13.8342H13.1302C12.858 13.8341 12.5953 13.7342 12.392 13.5533C12.1886 13.3725 12.0586 13.1233 12.0268 12.853L12.019 12.723V6.0559C12.019 3.60019 13.6858 0.5 15.3526 0.5ZM8.68548 0.5C8.95765 0.500036 9.22034 0.599957 9.42372 0.780812C9.6271 0.961667 9.75704 1.21088 9.78888 1.48117L9.79666 1.61118V7.16708C9.79653 8.15255 9.46906 9.11006 8.86568 9.88922C8.26231 10.6684 7.41721 11.225 6.46312 11.4718V19.3901C6.46281 19.6733 6.35436 19.9457 6.15994 20.1516C5.96552 20.3576 5.6998 20.4815 5.41707 20.4981C5.13433 20.5147 4.85594 20.4227 4.63875 20.2409C4.42157 20.0591 4.28199 19.8013 4.24854 19.5201L4.24076 19.3901V11.4718C3.32455 11.2349 2.50778 10.712 1.90925 9.97893C1.31072 9.24591 0.961641 8.34106 0.912783 7.39598L0.907227 7.16708V1.61118C0.907541 1.32796 1.01599 1.05555 1.21041 0.849612C1.40483 0.643671 1.67055 0.51974 1.95329 0.503142C2.23602 0.486544 2.51441 0.578532 2.7316 0.76031C2.94878 0.942088 3.08836 1.19994 3.12181 1.48117L3.12959 1.61118V7.16708C3.1296 7.55717 3.23229 7.94039 3.42734 8.27822C3.62239 8.61605 3.90293 8.89659 4.24076 9.09164V1.61118C4.24108 1.32796 4.34953 1.05555 4.54395 0.849612C4.73837 0.643671 5.00409 0.51974 5.28682 0.503142C5.56955 0.486544 5.84795 0.578532 6.06514 0.76031C6.28232 0.942088 6.4219 1.19994 6.45535 1.48117L6.46312 1.61118L6.46424 9.09164C6.77432 8.9124 7.03649 8.66087 7.22842 8.35847C7.42035 8.05606 7.53634 7.71176 7.56653 7.35487L7.5743 7.16708V1.61118C7.5743 1.31648 7.69137 1.03384 7.89976 0.825457C8.10815 0.61707 8.39078 0.5 8.68548 0.5Z" fill="white"/>
</svg>
