<svg width="19" height="21" viewBox="0 0 19 21" fill="none" xmlns="http://www.w3.org/2000/svg">
<path d="M17.196 11.2692H14.1191V8.19231H15.6576C16.0656 8.19231 16.4569 8.03022 16.7454 7.7417C17.0339 7.45319 17.196 7.06187 17.196 6.65385V2.03846C17.196 1.63044 17.0339 1.23912 16.7454 0.950605C16.4569 0.662087 16.0656 0.5 15.6576 0.5H3.34987C2.94185 0.5 2.55053 0.662087 2.26202 0.950605C1.9735 1.23912 1.81141 1.63044 1.81141 2.03846V6.65385C1.81141 7.06187 1.9735 7.45319 2.26202 7.7417C2.55053 8.03022 2.94185 8.19231 3.34987 8.19231H4.88833V11.2692H1.81141C1.40339 11.2692 1.01207 11.4313 0.723554 11.7198C0.435037 12.0084 0.272949 12.3997 0.272949 12.8077V14.3462C0.272949 14.7542 0.435037 15.1455 0.723554 15.434C1.01207 15.7225 1.40339 15.8846 1.81141 15.8846H2.58064V19.7308C2.58064 19.9348 2.66169 20.1304 2.80594 20.2747C2.9502 20.419 3.14586 20.5 3.34987 20.5C3.55389 20.5 3.74954 20.419 3.8938 20.2747C4.03806 20.1304 4.1191 19.9348 4.1191 19.7308V15.8846H14.8883V19.7308C14.8883 19.9348 14.9694 20.1304 15.1136 20.2747C15.2579 20.419 15.4536 20.5 15.6576 20.5C15.8616 20.5 16.0572 20.419 16.2015 20.2747C16.3458 20.1304 16.4268 19.9348 16.4268 19.7308V15.8846H17.196C17.6041 15.8846 17.9954 15.7225 18.2839 15.434C18.5724 15.1455 18.7345 14.7542 18.7345 14.3462V12.8077C18.7345 12.3997 18.5724 12.0084 18.2839 11.7198C17.9954 11.4313 17.6041 11.2692 17.196 11.2692ZM3.34987 2.03846H15.6576V6.65385H3.34987V2.03846ZM6.4268 8.19231H12.5806V11.2692H6.4268V8.19231ZM17.196 14.3462H1.81141V12.8077H17.196V14.3462Z" fill="white"/>
</svg>
