<svg width="20" height="21" viewBox="0 0 20 21" fill="none" xmlns="http://www.w3.org/2000/svg">
<path d="M16.95 8.26661L5.2833 2.43328C4.82287 2.20412 4.30298 2.12254 3.79449 2.19965C3.28601 2.27677 2.81368 2.50884 2.4419 2.86421C2.07013 3.21958 1.81701 3.68096 1.71704 4.18545C1.61707 4.68994 1.67513 5.21299 1.8833 5.68328L3.8833 10.1583C3.92868 10.2665 3.95205 10.3826 3.95205 10.4999C3.95205 10.6173 3.92868 10.7334 3.8833 10.8416L1.8833 15.3166C1.71388 15.6972 1.64226 16.1141 1.67494 16.5294C1.70763 16.9447 1.84358 17.3453 2.07045 17.6947C2.29731 18.0441 2.6079 18.3313 2.97398 18.5301C3.34006 18.729 3.75003 18.8332 4.16663 18.8333C4.55682 18.8294 4.9412 18.7383 5.29163 18.5666L16.9583 12.7333C17.3721 12.5251 17.72 12.206 17.963 11.8117C18.2061 11.4173 18.3348 10.9632 18.3348 10.4999C18.3348 10.0367 18.2061 9.58257 17.963 9.18821C17.72 8.79386 17.3721 8.47479 16.9583 8.26661H16.95ZM16.2083 11.2416L4.54163 17.0749C4.38843 17.1485 4.2164 17.1735 4.04862 17.1465C3.88083 17.1195 3.7253 17.0419 3.60289 16.924C3.48048 16.8061 3.39703 16.6536 3.36374 16.487C3.33045 16.3203 3.3489 16.1475 3.41663 15.9916L5.4083 11.5166C5.43408 11.4569 5.45634 11.3956 5.47496 11.3333H11.2166C11.4376 11.3333 11.6496 11.2455 11.8059 11.0892C11.9622 10.9329 12.05 10.721 12.05 10.4999C12.05 10.2789 11.9622 10.067 11.8059 9.91069C11.6496 9.75441 11.4376 9.66661 11.2166 9.66661H5.47496C5.45634 9.60425 5.43408 9.54303 5.4083 9.48328L3.41663 5.00828C3.3489 4.85241 3.33045 4.67957 3.36374 4.51292C3.39703 4.34627 3.48048 4.19378 3.60289 4.0759C3.7253 3.95802 3.88083 3.88039 4.04862 3.8534C4.2164 3.82642 4.38843 3.85139 4.54163 3.92494L16.2083 9.75828C16.3448 9.82821 16.4594 9.93446 16.5393 10.0653C16.6193 10.1962 16.6617 10.3466 16.6617 10.4999C16.6617 10.6533 16.6193 10.8037 16.5393 10.9346C16.4594 11.0654 16.3448 11.1717 16.2083 11.2416Z" fill="white"/>
</svg>
