<svg width="21" height="23" viewBox="0 0 21 23" fill="none" xmlns="http://www.w3.org/2000/svg">
<path d="M4.65735 15.7105H16.2363M8.34156 12.5526V15.7105M16.2363 14.1316V17.2895M4.65735 14.1316V17.2895M4.65735 12.0921C4.06114 11.9731 3.49486 11.7358 2.99197 11.3941C2.48908 11.0525 2.05981 10.6135 1.72953 10.1031C1.39926 9.59262 1.17469 9.02115 1.0691 8.42243C0.963518 7.82371 0.979062 7.20989 1.11482 6.61728C1.25057 6.02467 1.50378 5.4653 1.85947 4.97225C2.21515 4.47919 2.6661 4.06247 3.18563 3.74672C3.70517 3.43096 4.28274 3.2226 4.88421 3.13394C5.48567 3.04527 6.0988 3.07812 6.68735 3.23053C7.1126 2.69066 7.65488 2.25439 8.27329 1.95462C8.8917 1.65485 9.57011 1.4994 10.2573 1.5C10.9644 1.49939 11.6618 1.66389 12.294 1.98041C12.9262 2.29693 13.4758 2.75673 13.8989 3.32316C14.4886 3.12313 15.113 3.04633 15.7335 3.0975C16.3541 3.14867 16.9575 3.32674 17.5064 3.62066C18.0553 3.91458 18.538 4.31809 18.9246 4.80619C19.3111 5.29429 19.5933 5.85657 19.7537 6.45821C19.9141 7.05984 19.9492 7.688 19.8569 8.30376C19.7646 8.91951 19.5468 9.50975 19.217 10.0379C18.8872 10.566 18.4525 11.0208 17.9398 11.3741C17.4271 11.7274 16.8473 11.9716 16.2363 12.0916V20.4474C16.2363 20.7265 16.1254 20.9943 15.928 21.1917C15.7306 21.3891 15.4628 21.5 15.1837 21.5H5.70998C5.4308 21.5 5.16306 21.3891 4.96566 21.1917C4.76825 20.9943 4.65735 20.7265 4.65735 20.4474V12.0921Z" stroke="white" stroke-width="1.66667" stroke-linecap="round" stroke-linejoin="round"/>
</svg>
