<svg width="201" height="109" viewBox="0 0 201 109" fill="none" xmlns="http://www.w3.org/2000/svg">
<path d="M200.06 99.1757C200.06 101.081 199.488 102.624 198.345 103.803C197.202 104.937 195.708 105.504 193.861 105.504H189.114C187.268 105.504 185.773 104.937 184.63 103.803C183.487 102.624 182.916 101.081 182.916 99.1757V63.653C182.916 61.7475 183.487 60.2277 184.63 59.0936C185.773 57.914 187.268 57.3242 189.114 57.3242H193.861C195.708 57.3242 197.202 57.914 198.345 59.0936C199.488 60.2277 200.06 61.7475 200.06 63.653V99.1757ZM189.509 63.653C189.29 63.653 189.18 63.7664 189.18 63.9932V98.8354C189.18 99.0623 189.29 99.1757 189.509 99.1757H193.466C193.686 99.1757 193.796 99.0623 193.796 98.8354V63.9932C193.796 63.7664 193.686 63.653 193.466 63.653H189.509Z" fill="#F5A337"/>
<path d="M163.002 63.9267L163.659 57.5981H174.042C175.882 57.5981 177.372 58.1879 178.511 59.3674C179.65 60.5016 180.219 62.0213 180.219 63.9267V85.226C180.219 86.2241 180.022 87.1314 179.628 87.948C179.234 88.7192 178.708 89.377 178.051 89.9214L182.256 105.232H175.948L172.202 91.5546H170.231V105.232H163.988V63.9267H163.002ZM173.648 63.9267H170.231V85.226H173.648C173.867 85.226 173.976 85.1126 173.976 84.8858V64.2669C173.976 64.0401 173.867 63.9267 173.648 63.9267Z" fill="#F5A337"/>
<path d="M142.957 63.9267V57.5981H161.024V63.9267H155.111V105.232H148.87V63.9267H142.957Z" fill="#F5A337"/>
<path d="M131.497 91.622V98.8354C131.497 99.0623 131.606 99.1757 131.824 99.1757H134.439C134.657 99.1757 134.766 99.0623 134.766 98.8354V86.5862L129.601 84.2044C129.208 84.0683 128.663 83.8415 127.966 83.5239C127.268 83.161 126.636 82.6393 126.07 81.9587C125.546 81.2782 125.285 80.3482 125.285 79.1687V63.653C125.285 61.7475 125.852 60.2277 126.985 59.0936C128.118 57.914 129.601 57.3242 131.432 57.3242H134.832C136.663 57.3242 138.145 57.914 139.278 59.0936C140.412 60.2277 140.978 61.7475 140.978 63.653V73.7246L134.766 73.1801V63.9932C134.766 63.7664 134.657 63.653 134.439 63.653H131.824C131.606 63.653 131.497 63.7664 131.497 63.9932V78.2159L136.663 80.5977C137.055 80.7792 137.6 81.0287 138.297 81.3463C138.995 81.6639 139.605 82.1629 140.128 82.8434C140.695 83.5239 140.978 84.454 140.978 85.6335V99.1757C140.978 101.081 140.412 102.624 139.278 103.803C138.145 104.937 136.663 105.504 134.832 105.504H131.432C129.601 105.504 128.118 104.937 126.985 103.803C125.852 102.624 125.285 101.081 125.285 99.1757V91.622H131.497Z" fill="#F5A337"/>
<path d="M116.383 105.232V63.9267H115.394L116.053 57.5981H122.647V105.232H116.383Z" fill="#F5A337"/>
<path fill-rule="evenodd" clip-rule="evenodd" d="M17.7498 32.4058V58.5453C17.7498 71.6512 28.0154 82.2756 40.6787 82.2756C53.342 82.2756 63.6076 71.6511 63.6076 58.5452V32.4058H17.7498Z" fill="#F4CC2E"/>
<path fill-rule="evenodd" clip-rule="evenodd" d="M16.4695 59.0593V32.4058H13.4434V61.3117C13.4434 73.6648 22.3805 83.8576 33.9281 85.342V82.4884C23.882 79.7678 16.4695 70.3095 16.4695 59.0593ZM40.5623 83.2756V101.99L46.5449 85.4163C58.4061 84.2387 67.6813 73.8962 67.6813 61.3117V44.1285H64.6552V59.0594C64.6552 72.4336 54.1793 83.2756 41.2567 83.2756H40.5623Z" fill="#F5A337"/>
<path d="M0 24.8101L16.4722 32.3857L14.3186 65.9953L1.16412 57.9987L0 24.8101Z" fill="#F5A337"/>
<path d="M0 24.8101L16.4722 32.3857L14.3186 65.9953L1.16412 57.9987L0 24.8101Z" fill="#F5A337"/>
<path fill-rule="evenodd" clip-rule="evenodd" d="M44.1123 0C51.6385 0 57.7685 5.04782 58.0133 11.3528C64.095 12.2138 68.7288 16.6727 68.7288 22.0439C68.7288 25.582 66.7182 28.7242 63.6076 30.7029V30.9927C63.6076 31.029 63.6063 31.0649 63.6037 31.1005C63.6063 31.1731 63.6076 31.246 63.6076 31.3192V39.6309C63.6076 42.8242 61.1064 45.4129 58.0209 45.4129C54.9354 45.4129 52.4342 42.8242 52.4342 39.6309V35.9568C51.503 31.4999 46.2073 32.5238 45.7999 34.8125L45.7999 37.5831C45.7999 40.1111 43.8197 42.1605 41.3771 42.1605C38.9344 42.1605 36.9542 40.1111 36.9542 37.5831V33.8484C36.9346 33.3664 36.4765 32.4033 34.801 32.4033C34.8002 32.4033 34.7994 32.4033 34.7986 32.4033L24.0349 32.4033L18.2981 32.4033C17.5453 32.4033 16.9351 31.7718 16.9351 30.9927V30.1042C14.7908 28.473 13.4434 26.1136 13.4434 23.4894C13.4434 21.1643 14.5011 19.0471 16.2337 17.4601C15.8576 16.455 15.6548 15.3847 15.6548 14.2743C15.6548 8.45318 21.2305 3.73421 28.1085 3.73421C29.8716 3.73421 31.5492 4.04429 33.0691 4.60352C35.6113 1.80459 39.6122 0 44.1123 0Z" fill="white"/>
<path fill-rule="evenodd" clip-rule="evenodd" d="M40.0395 104.217C46.4997 104.217 51.7368 103.349 51.7368 102.279C51.7368 101.209 46.4997 100.341 40.0395 100.341C33.5793 100.341 28.3423 101.209 28.3423 102.279C28.3423 103.349 33.5793 104.217 40.0395 104.217ZM40.0395 103.261C44.913 103.261 48.8638 102.607 48.8638 101.801C48.8638 100.995 44.913 100.341 40.0395 100.341C35.1661 100.341 31.2153 100.995 31.2153 101.801C31.2153 102.607 35.1661 103.261 40.0395 103.261Z" fill="#F53D3D"/>
<path fill-rule="evenodd" clip-rule="evenodd" d="M39.9804 106.366C51.0367 106.366 59.9995 104.883 59.9995 103.054C59.9995 101.226 51.049 99.7433 40.0033 99.7412C54.6487 99.7433 66.5174 101.711 66.5174 104.138C66.5174 106.566 54.6364 108.535 39.9804 108.535C25.3244 108.535 13.4434 106.566 13.4434 104.138C13.4434 101.711 25.312 99.7433 39.9575 99.7412C28.9117 99.7433 19.9612 101.226 19.9612 103.054C19.9612 104.883 28.9241 106.366 39.9804 106.366Z" fill="#F5A337"/>
<path fill-rule="evenodd" clip-rule="evenodd" d="M38.7711 14.8793C39.0473 15.3718 38.4387 15.4357 38.1103 14.9768C37.3866 13.9659 36.3938 13.0608 35.1788 12.3768C31.5411 10.3286 27.2895 11.0367 25.6826 13.9584C25.467 14.3504 25.31 14.7623 25.2085 15.1867C25.0797 15.725 24.1164 16.0468 24.0387 15.4997C23.8807 14.3886 24.0409 13.3003 24.5679 12.3422C26.2113 9.35408 30.8002 8.76524 34.8173 11.027C36.5795 12.0192 37.9389 13.3951 38.7711 14.8793Z" fill="#F4CC2E"/>
<path fill-rule="evenodd" clip-rule="evenodd" d="M46.2815 22.2616C47.0789 20.2243 46.3512 17.9839 44.3834 16.8984C42.0738 15.6245 38.9304 16.4241 37.3625 18.6844C36.9853 19.2282 36.0028 19.2755 36.2297 18.6528C36.3658 18.2793 36.5539 17.914 36.7962 17.5647C38.3998 15.2529 41.7674 14.5193 44.318 15.9262C46.7245 17.2536 47.5438 20.0124 46.2815 22.2616Z" fill="#F4CC2E"/>
<path fill-rule="evenodd" clip-rule="evenodd" d="M21.2501 36.1211C21.9626 36.1211 22.5403 36.7131 22.5403 37.4434C22.5403 39.5089 22.5238 41.5075 22.508 43.4347C22.4608 49.167 22.4188 54.2678 22.8304 58.6173C23.3827 64.4519 24.723 68.4704 27.5532 70.719C28.1164 71.1665 28.219 71.9971 27.7824 72.5743C27.3459 73.1515 26.5354 73.2566 25.9723 72.8092C22.2421 69.8455 20.8261 64.8314 20.2621 58.8726C19.8361 54.3721 19.8801 49.0681 19.928 43.29C19.9437 41.3886 19.9599 39.4358 19.9599 37.4434C19.9599 36.7131 20.5375 36.1211 21.2501 36.1211Z" fill="white"/>
<path d="M34.6786 76.4327C34.1394 77.633 32.4501 78.0034 30.9055 77.2601C29.3608 76.5168 28.5458 74.9413 29.085 73.741C29.6242 72.5408 31.3135 72.1704 32.8581 72.9137C34.4027 73.657 35.2178 75.2325 34.6786 76.4327Z" fill="white"/>
<path d="M22.5062 36.0363C22.5062 36.549 22.0681 36.9646 21.5276 36.9646C20.9872 36.9646 20.5491 36.549 20.5491 36.0363C20.5491 35.5235 20.9872 35.1079 21.5276 35.1079C22.0681 35.1079 22.5062 35.5235 22.5062 36.0363Z" fill="white"/>
<path d="M25.4425 40.7633C25.4425 41.5557 24.7853 42.1981 23.9747 42.1981C23.164 42.1981 22.5068 41.5557 22.5068 40.7633C22.5068 39.971 23.164 39.3286 23.9747 39.3286C24.7853 39.3286 25.4425 39.971 25.4425 40.7633Z" fill="white"/>
<path d="M30.0093 43.7183C30.0093 44.2776 29.5712 44.7311 29.0308 44.7311C28.4904 44.7311 28.0522 44.2776 28.0522 43.7183C28.0522 43.159 28.4904 42.7056 29.0308 42.7056C29.5712 42.7056 30.0093 43.159 30.0093 43.7183Z" fill="white"/>
<path d="M59.6917 45.8286C59.6917 46.4345 59.2536 46.9257 58.7132 46.9257C58.1727 46.9257 57.7346 46.4345 57.7346 45.8286C57.7346 45.2227 58.1727 44.7314 58.7132 44.7314C59.2536 44.7314 59.6917 45.2227 59.6917 45.8286Z" fill="white"/>
<path d="M32.7811 36.2062C32.7811 37.2783 31.9414 38.1473 30.9056 38.1473C29.8697 38.1473 29.03 37.2783 29.03 36.2062C29.03 35.1342 29.8697 34.2651 30.9056 34.2651C31.9414 34.2651 32.7811 35.1342 32.7811 36.2062Z" fill="white"/>
<path d="M36.0438 42.2808C36.0438 43.1664 35.3136 43.8843 34.4129 43.8843C33.5122 43.8843 32.782 43.1664 32.782 42.2808C32.782 41.3952 33.5122 40.6772 34.4129 40.6772C35.3136 40.6772 36.0438 41.3952 36.0438 42.2808Z" fill="white"/>
<path d="M52.6791 44.0552C52.6791 45.5467 51.5108 46.7558 50.0697 46.7558C48.6285 46.7558 47.4602 45.5467 47.4602 44.0552C47.4602 42.5636 48.6285 41.3545 50.0697 41.3545C51.5108 41.3545 52.6791 42.5636 52.6791 44.0552Z" fill="white"/>
<path d="M43.0562 44.0568C43.0562 44.523 42.6911 44.9008 42.2408 44.9008C41.7904 44.9008 41.4253 44.523 41.4253 44.0568C41.4253 43.5907 41.7904 43.2129 42.2408 43.2129C42.6911 43.2129 43.0562 43.5907 43.0562 44.0568Z" fill="white"/>
<path d="M49.2542 38.1486C49.2542 38.6148 48.8526 38.9926 48.3572 38.9926C47.8618 38.9926 47.4602 38.6148 47.4602 38.1486C47.4602 37.6825 47.8618 37.3047 48.3572 37.3047C48.8526 37.3047 49.2542 37.6825 49.2542 38.1486Z" fill="white"/>
<path fill-rule="evenodd" clip-rule="evenodd" d="M58.0133 11.3528C57.7685 5.04782 51.6385 0 44.1123 0C39.6122 0 35.6113 1.80459 33.0691 4.60352C31.5492 4.04429 29.8716 3.73421 28.1085 3.73421C21.2305 3.73421 15.6548 8.45318 15.6548 14.2743C15.6548 15.3847 15.8576 16.455 16.2337 17.4601C14.5011 19.0471 13.4434 21.1643 13.4434 23.4894C13.4434 26.1136 14.7908 28.473 16.9351 30.1042V30.9927C16.9351 31.7718 17.5453 32.4033 18.2981 32.4033L24.0349 32.4033L34.7986 32.4033H34.801C36.4765 32.4033 36.9346 33.3664 36.9542 33.8484V37.5831C36.9542 40.1111 38.9344 42.1605 41.3771 42.1605C43.8197 42.1605 45.7999 40.1111 45.7999 37.5831L45.7999 34.8125C46.2073 32.5238 51.503 31.4999 52.4342 35.9568V39.6309C52.4342 42.8242 54.9354 45.4129 58.0209 45.4129C61.1064 45.4129 63.6076 42.8242 63.6076 39.6309V31.3192C63.6076 31.246 63.6063 31.1731 63.6037 31.1005C63.6063 31.0649 63.6076 31.029 63.6076 30.9927V30.7029C66.7182 28.7242 68.7288 25.582 68.7288 22.0439C68.7288 16.6727 64.095 12.2138 58.0133 11.3528ZM57.6272 12.4671C57.3922 6.74744 51.5074 2.16825 44.2822 2.16825C39.9621 2.16825 36.1213 3.80531 33.6808 6.34439C32.2216 5.83708 30.6112 5.55579 28.9186 5.55579C22.3157 5.55579 16.963 9.83666 16.963 15.1174C16.963 16.1247 17.1578 17.0956 17.5188 18.0074C15.8555 19.4471 14.8401 21.3677 14.8401 23.477C14.8401 25.8575 16.1335 27.9979 18.1921 29.4776V30.1527C18.1921 30.9318 18.8023 31.5633 19.5551 31.5633H24.9982L25.0079 31.5633L25.0176 31.5633H35.3503C36.9536 31.5658 37.3919 32.4382 37.4105 32.8746V34.1859L37.4198 34.1754V36.4989C37.4198 38.6943 39.1394 40.4741 41.2607 40.4741C43.3819 40.4741 45.1016 38.6943 45.1016 36.4989V33.8173C46.254 31.5197 51.7795 30.6983 53.3653 34.9267V38.366C53.3653 41.1269 55.5278 43.3651 58.1955 43.3651C60.8631 43.3651 63.0257 41.1269 63.0257 38.366V30.2953C63.0257 30.1991 63.0231 30.1035 63.0179 30.0087C65.9926 28.2129 67.9141 25.368 67.9141 22.1656C67.9141 17.2931 63.4656 13.2481 57.6272 12.4671Z" fill="#F4CC2E"/>
<path fill-rule="evenodd" clip-rule="evenodd" d="M103.392 56.0318V56.0319H92.8581V56.0318H103.392ZM103.392 53.575V41.6727C103.392 38.4534 102.431 37.2504 100.509 35.3341C98.5873 33.3412 96.0739 32.3447 92.969 32.3447H66.8573L64.752 41.6727H74.5618V105.502H90.9601V94.8094H85.0961V41.6727H92.3037C92.6733 41.6727 92.8581 41.8644 92.8581 42.2476V53.575H103.392Z" fill="#F5A337"/>
<path d="M93.4258 105.442V62.5325H92.7107L92.7107 56.0332H104.578C106.619 56.0332 108.272 56.6389 109.535 57.8502C110.799 59.015 111.43 60.5757 111.43 62.5325V77.2083C111.43 77.8606 111.333 78.4896 111.139 79.0952C112.305 80.3066 112.888 81.844 112.888 83.7076V98.9426C112.888 100.899 112.111 102.483 110.556 103.695C109.049 104.859 107.275 105.442 105.234 105.442H93.4258ZM104.141 62.5325H100.351V77.2083H104.141C104.384 77.2083 104.505 77.0919 104.505 76.8589V62.8819C104.505 62.649 104.384 62.5325 104.141 62.5325ZM105.599 83.7076H100.351V98.9426H105.599C105.842 98.9426 105.963 98.8261 105.963 98.5931V84.0571C105.963 83.8241 105.842 83.7076 105.599 83.7076Z" fill="#F5A337"/>
<path d="M140.978 42.9933C140.978 42.3902 141.45 41.9014 142.033 41.9014H193.201C193.784 41.9014 194.256 42.3902 194.256 42.9933V43.2662C194.256 43.8693 193.784 44.3582 193.201 44.3582H142.033C141.45 44.3582 140.978 43.8693 140.978 43.2662V42.9933Z" fill="#F5A337"/>
<path d="M198.736 42.7714L192.868 39.375C192.604 39.2223 192.279 39.4196 192.279 39.7323L192.279 43.1288C192.279 43.3549 192.457 43.5382 192.675 43.5382L198.542 43.5382C198.95 43.5382 199.091 42.9774 198.736 42.7714Z" fill="#F5A337"/>
<path fill-rule="evenodd" clip-rule="evenodd" d="M198.607 43.0097L192.739 39.6132C192.652 39.5623 192.543 39.6281 192.543 39.7323L192.543 43.1288C192.543 43.2042 192.602 43.2653 192.675 43.2653L198.542 43.2653C198.678 43.2653 198.725 43.0783 198.607 43.0097ZM192.868 39.375L198.736 42.7714C199.091 42.9774 198.95 43.5382 198.542 43.5382L192.675 43.5382C192.457 43.5382 192.279 43.3549 192.279 43.1288L192.279 39.7323C192.279 39.4196 192.604 39.2223 192.868 39.375Z" fill="#F5A337"/>
<path d="M198.736 43.4874L192.868 46.8838C192.604 47.0365 192.279 46.8392 192.279 46.5265L192.279 43.13C192.279 42.9039 192.457 42.7205 192.675 42.7205L198.542 42.7205C198.95 42.7205 199.091 43.2814 198.736 43.4874Z" fill="#F5A337"/>
<path fill-rule="evenodd" clip-rule="evenodd" d="M198.607 43.2491L192.739 46.6456C192.652 46.6965 192.543 46.6307 192.543 46.5265L192.543 43.13C192.543 43.0546 192.602 42.9935 192.675 42.9935L198.542 42.9935C198.678 42.9935 198.725 43.1805 198.607 43.2491ZM192.868 46.8838L198.736 43.4874C199.091 43.2814 198.95 42.7205 198.542 42.7205L192.675 42.7205C192.457 42.7205 192.279 42.9039 192.279 43.13L192.279 46.5265C192.279 46.8392 192.604 47.0365 192.868 46.8838Z" fill="#F5A337"/>
<path d="M132.755 43.3538C132.671 43.6707 132.48 43.9458 132.216 44.1286C131.952 44.3113 131.633 44.3894 131.318 44.3486C131.003 44.3077 130.713 44.1507 130.501 43.9062C130.289 43.6618 130.169 43.3463 130.164 43.0178C130.158 42.6893 130.267 42.3698 130.471 42.1179C130.675 41.8661 130.96 41.6987 131.273 41.6466C131.587 41.5946 131.908 41.6613 132.178 41.8345C132.447 42.0077 132.648 42.2758 132.742 42.5896L131.482 42.9943L132.755 43.3538Z" fill="#F5A337"/>
<path d="M137.372 43.3538C137.288 43.6707 137.097 43.9458 136.833 44.1286C136.569 44.3113 136.25 44.3894 135.935 44.3486C135.62 44.3077 135.33 44.1507 135.118 43.9062C134.906 43.6618 134.786 43.3463 134.781 43.0178C134.775 42.6893 134.884 42.3698 135.088 42.1179C135.292 41.8661 135.577 41.6987 135.89 41.6466C136.204 41.5946 136.525 41.6613 136.795 41.8345C137.064 42.0077 137.265 42.2758 137.359 42.5896L136.099 42.9943L137.372 43.3538Z" fill="#F5A337"/>
<path d="M127.48 43.3538C127.396 43.6707 127.205 43.9458 126.941 44.1286C126.677 44.3113 126.359 44.3894 126.044 44.3486C125.729 44.3077 125.439 44.1507 125.226 43.9062C125.014 43.6618 124.895 43.3463 124.889 43.0178C124.884 42.6893 124.993 42.3698 125.197 42.1179C125.4 41.8661 125.685 41.6987 125.999 41.6466C126.312 41.5946 126.633 41.6613 126.903 41.8345C127.173 42.0077 127.373 42.2758 127.467 42.5896L126.208 42.9943L127.48 43.3538Z" fill="#F5A337"/>
<path d="M122.206 43.3538C122.122 43.6707 121.931 43.9458 121.667 44.1286C121.403 44.3113 121.084 44.3894 120.769 44.3486C120.454 44.3077 120.164 44.1507 119.952 43.9062C119.74 43.6618 119.62 43.3463 119.615 43.0178C119.609 42.6893 119.718 42.3698 119.922 42.1179C120.126 41.8661 120.411 41.6987 120.724 41.6466C121.038 41.5946 121.359 41.6613 121.629 41.8345C121.898 42.0077 122.099 42.2758 122.193 42.5896L120.933 42.9943L122.206 43.3538Z" fill="#F5A337"/>
<path d="M116.93 43.3538C116.846 43.6707 116.655 43.9458 116.391 44.1286C116.127 44.3113 115.809 44.3894 115.494 44.3486C115.179 44.3077 114.889 44.1507 114.676 43.9062C114.464 43.6618 114.345 43.3463 114.339 43.0178C114.334 42.6893 114.443 42.3698 114.647 42.1179C114.85 41.8661 115.135 41.6987 115.449 41.6466C115.762 41.5946 116.083 41.6613 116.353 41.8345C116.623 42.0077 116.823 42.2758 116.917 42.5896L115.658 42.9943L116.93 43.3538Z" fill="#F5A337"/>
<path d="M111.655 43.3538C111.572 43.6707 111.381 43.9458 111.117 44.1286C110.853 44.3113 110.534 44.3894 110.219 44.3486C109.904 44.3077 109.614 44.1507 109.402 43.9062C109.19 43.6618 109.07 43.3463 109.065 43.0178C109.059 42.6893 109.168 42.3698 109.372 42.1179C109.576 41.8661 109.861 41.6987 110.174 41.6466C110.488 41.5946 110.809 41.6613 111.078 41.8345C111.348 42.0077 111.549 42.2758 111.643 42.5896L110.383 42.9943L111.655 43.3538Z" fill="#F5A337"/>
</svg>
