<svg width="67" height="55" viewBox="0 0 67 55" fill="none" xmlns="http://www.w3.org/2000/svg">
<path fill-rule="evenodd" clip-rule="evenodd" d="M33.8377 5.08214C35.0815 4.91101 36.0395 3.84391 36.0395 2.55305C36.0395 1.14304 34.8965 0 33.4865 0C32.0765 0 30.9334 1.14304 30.9334 2.55305C30.9334 3.89112 31.9628 4.98876 33.2728 5.09729L20.9401 32.9708L3.84499 21.2667C5.05931 21.0699 5.98647 20.0166 5.98647 18.7467C5.98647 17.3367 4.84343 16.1936 3.43342 16.1936C2.02341 16.1936 0.880371 17.3367 0.880371 18.7467C0.880371 20.1567 2.02341 21.2997 3.43342 21.2997L3.44277 21.2997L9.77958 49.3833H57.1934L63.6025 21.2984C63.63 21.2993 63.6577 21.2997 63.6854 21.2997C65.0954 21.2997 66.2385 20.1567 66.2385 18.7467C66.2385 17.3367 65.0954 16.1936 63.6854 16.1936C62.2754 16.1936 61.1324 17.3367 61.1324 18.7467C61.1324 19.9962 62.03 21.0361 63.2157 21.2566L46.1058 32.9708L33.8377 5.08214ZM56.9016 50.7692L56.1721 55H10.9467L10.2172 50.7692H56.9016Z" fill="#F84817"/>
</svg>
