<svg width="18" height="18" viewBox="0 0 18 18" fill="none" xmlns="http://www.w3.org/2000/svg">
<path fill-rule="evenodd" clip-rule="evenodd" d="M0.470721 0.470721C1.09835 -0.156907 2.11594 -0.156907 2.74356 0.470721L9 6.72716L15.2564 0.470721C15.8841 -0.156907 16.9016 -0.156907 17.5293 0.470721C18.1569 1.09835 18.1569 2.11594 17.5293 2.74356L11.2728 9L17.5293 15.2564C18.1569 15.8841 18.1569 16.9016 17.5293 17.5293C16.9016 18.1569 15.8841 18.1569 15.2564 17.5293L9 11.2728L2.74356 17.5293C2.11594 18.1569 1.09835 18.1569 0.470721 17.5293C-0.156907 16.9016 -0.156907 15.8841 0.470721 15.2564L6.72716 9L0.470721 2.74356C-0.156907 2.11594 -0.156907 1.09835 0.470721 0.470721Z" fill="#F84817"/>
</svg>
