<svg width="95" height="96" viewBox="0 0 95 96" fill="none" xmlns="http://www.w3.org/2000/svg">
<path fill-rule="evenodd" clip-rule="evenodd" d="M13.9406 0L42.4225 1.06587e-06C43.9657 1.06587e-06 45.2166 1.25097 45.2166 2.79412C45.2166 4.33727 43.9657 5.58824 42.4225 5.58824H13.9419C12.708 5.58947 11.4864 5.83373 10.3468 6.30707C9.20689 6.78055 8.17144 7.47398 7.29959 8.34774L4.77392 10.8734C3.68275 11.9646 1.91361 11.9646 0.822442 10.8734C-0.268729 9.78224 -0.268729 8.0131 0.822442 6.92193L3.34379 4.40059C3.3434 4.40097 3.34417 4.4002 3.34379 4.40059C4.73389 3.00775 6.38587 1.90118 8.20319 1.14632C10.021 0.391259 11.9722 0.00173177 13.9406 0ZM14.985 29.9659C12.4928 29.9659 10.1027 30.9559 8.34048 32.7181C6.57825 34.4803 5.58824 36.8704 5.58824 39.3626V69.8357C5.58824 72.3278 6.57825 74.7179 8.34048 76.4802C10.1027 78.2424 12.4928 79.2324 14.985 79.2324H33.2712C34.8144 79.2324 36.0654 80.4834 36.0654 82.0265C36.0654 83.5697 34.8144 84.8206 33.2712 84.8206H14.985C11.0107 84.8206 7.19922 83.2419 4.389 80.4316C1.57877 77.6214 0 73.8099 0 69.8357V39.3626C0 35.3883 1.57877 31.5769 4.389 28.7666C7.19922 25.9564 11.0107 24.3776 14.985 24.3776H39.3667C43.3409 24.3776 47.1524 25.9564 49.9626 28.7666C52.7729 31.5769 54.3516 35.3883 54.3516 39.3626V42.4103C54.3516 43.9535 53.1007 45.2044 51.5575 45.2044C50.0144 45.2044 48.7634 43.9535 48.7634 42.4103V39.3626C48.7634 36.8704 47.7734 34.4803 46.0112 32.7181C44.2489 30.9559 41.8588 29.9659 39.3667 29.9659H14.985ZM64.9325 48.5057C64.9325 46.9626 66.1835 45.7116 67.7267 45.7116H71.9813C73.5244 45.7116 74.7754 46.9626 74.7754 48.5057C74.7754 49.8184 73.8703 50.9196 72.6501 51.2193V55.4451C73.7422 55.653 74.8116 55.9778 75.8394 56.4156C76.8602 56.8505 77.829 57.3921 78.7303 58.0299L90.2301 46.53C91.3213 45.4388 93.0905 45.4388 94.1816 46.53C95.2728 47.6212 95.2728 49.3903 94.1816 50.4815L80.954 63.7091C80.9169 63.7497 80.8785 63.7893 80.8387 63.8281C80.8171 63.8492 80.7952 63.8698 80.7732 63.89L49.4818 95.1813C48.3907 96.2724 46.6215 96.2724 45.5304 95.1813C44.4392 94.0901 44.4392 92.321 45.5304 91.2298L57.0353 79.7248C56.3969 78.8219 55.855 77.8512 55.4202 76.8286C54.9845 75.804 54.661 74.7382 54.4536 73.6498H50.2206C49.9224 74.872 48.8202 75.7791 47.5061 75.7791C45.9629 75.7791 44.712 74.5281 44.712 72.985V68.7222C44.712 67.1791 45.9629 65.9281 47.5061 65.9281C48.8216 65.9281 49.9248 66.8373 50.2216 68.0615H54.4094C54.6021 66.9553 54.9143 65.8705 55.3424 64.8265C55.7674 63.7897 56.3021 62.8044 56.9356 61.8867L53.9958 58.9469C52.921 59.5984 51.5017 59.4599 50.5733 58.5315C49.4821 57.4403 49.4821 55.6712 50.5733 54.58L52.0739 53.0794C52.0729 53.0804 52.0749 53.0784 52.0739 53.0794C52.0749 53.0784 52.0788 53.0745 52.0798 53.0736L53.5804 51.573C54.6716 50.4818 56.4407 50.4818 57.5319 51.573C58.4603 52.5014 58.5988 53.9206 57.9473 54.9954L60.8853 57.9335C61.8046 57.2978 62.792 56.7614 63.8311 56.3351C64.8737 55.9074 65.9571 55.5952 67.0619 55.4023V51.2203C65.8397 50.922 64.9325 49.8198 64.9325 48.5057ZM69.1262 60.7775C68.037 60.8445 66.9645 61.0899 65.952 61.5052C64.993 61.8986 64.1027 62.4384 63.3124 63.1039C63.1831 63.3554 63.0131 63.5913 62.8024 63.802C62.5924 64.012 62.3574 64.1815 62.1069 64.3106C61.4436 65.1002 60.9054 65.989 60.5129 66.9464C60.0943 67.9675 59.8484 69.0495 59.7838 70.1482C59.8427 70.3742 59.8741 70.6112 59.8741 70.8556C59.8741 71.0814 59.8473 71.3008 59.7968 71.511C59.8808 72.5877 60.139 73.6452 60.5628 74.6419C60.7146 74.999 60.8868 75.3462 61.0783 75.6819L74.6878 62.0724C74.3526 61.8809 74.0059 61.7087 73.6493 61.5568C72.6581 61.1346 71.6065 60.8763 70.5356 60.7905C70.3181 60.8449 70.0904 60.8737 69.856 60.8737C69.6035 60.8737 69.3589 60.8403 69.1262 60.7775ZM89.4913 68.0615C89.7896 66.8393 90.8918 65.9322 92.2059 65.9322C93.749 65.9322 95 67.1832 95 68.7263V72.9809C95 74.5241 93.749 75.775 92.2059 75.775C90.8933 75.775 89.7921 74.8699 89.4923 73.6498H85.1693C84.7726 75.8237 83.9172 77.8891 82.6606 79.7069L85.7166 82.7665C86.7931 82.1118 88.2162 82.2508 89.1454 83.1824C90.2351 84.2751 90.2327 86.0442 89.1401 87.1339L86.1249 90.141C85.0322 91.2307 83.2631 91.2283 82.1734 90.1357C81.2467 89.2065 81.1098 87.7881 81.7615 86.7144L78.7095 83.6587C76.8912 84.9161 74.8249 85.7721 72.6501 86.1689V90.491C73.8723 90.7893 74.7794 91.8915 74.7794 93.2055C74.7794 94.7487 73.5285 95.9996 71.9853 95.9996H67.7226C66.1794 95.9996 64.9285 94.7487 64.9285 93.2055C64.9285 91.89 65.8376 90.7868 67.0619 90.49V83.6276C67.0619 82.0844 68.3128 80.8335 69.856 80.8335C72.4515 80.8335 74.9428 79.8222 76.803 78.0177C76.8377 77.9791 76.8736 77.9411 76.9108 77.904C76.9469 77.868 76.9837 77.8331 77.0212 77.7995C78.8237 75.9396 79.8338 73.4497 79.8338 70.8556C79.8338 69.3125 81.0848 68.0615 82.6279 68.0615H89.4913Z" fill="#F84519"/>
<path fill-rule="evenodd" clip-rule="evenodd" d="M27.1785 0.0078125C28.7216 0.0078125 29.9726 1.25878 29.9726 2.80193V12.1905H33.2698C35.6275 12.1905 37.8886 13.1271 39.5557 14.7942C41.2228 16.4613 42.1594 18.7224 42.1594 21.0801V27.1755C42.1594 28.7187 40.9084 29.9696 39.3653 29.9696H14.9836C13.4404 29.9696 12.1895 28.7187 12.1895 27.1755V21.0801C12.1895 18.7224 13.126 16.4613 14.7931 14.7942C16.4603 13.1271 18.7213 12.1905 21.079 12.1905H24.3844V2.80193C24.3844 1.25878 25.6353 0.0078125 27.1785 0.0078125ZM26.9638 17.7788H21.079C20.2034 17.7788 19.3637 18.1266 18.7446 18.7457C18.1255 19.3648 17.7777 20.2045 17.7777 21.0801V24.3814H36.5712V21.0801C36.5712 20.2045 36.2233 19.3648 35.6042 18.7457C34.9851 18.1266 34.1454 17.7788 33.2698 17.7788H27.3932C27.3223 17.7842 27.2507 17.7869 27.1785 17.7869C27.1062 17.7869 27.0346 17.7842 26.9638 17.7788ZM27.1785 36.5722C28.7216 36.5722 29.9726 37.8232 29.9726 39.3664V48.7631H39.3612C40.9044 48.7631 42.1553 50.0141 42.1553 51.5572C42.1553 53.1004 40.9044 54.3513 39.3612 54.3513H29.9726V63.744C29.9726 65.2871 28.7216 66.5381 27.1785 66.5381C25.6353 66.5381 24.3844 65.2871 24.3844 63.744V54.3513H14.9876C13.4445 54.3513 12.1935 53.1004 12.1935 51.5572C12.1935 50.0141 13.4445 48.7631 14.9876 48.7631H24.3844V39.3664C24.3844 37.8232 25.6353 36.5722 27.1785 36.5722Z" fill="#F84519"/>
</svg>
