<svg width="73" height="79" viewBox="0 0 73 79" fill="none" xmlns="http://www.w3.org/2000/svg">
<path d="M33.7213 0.688516C35.2833 0.104077 36.99 0.0278853 38.5979 0.470809L39.2787 0.688516L66.9871 11.0791C68.392 11.606 69.6183 12.5212 70.523 13.7182C71.4278 14.9152 71.9737 16.3446 72.0973 17.84L72.125 18.4931V39.7216C72.1248 46.1358 70.393 52.431 67.1122 57.9426C63.8314 63.4542 59.1234 67.9779 53.4852 71.036L52.4323 71.5862L39.156 78.2244C38.425 78.5893 37.6266 78.7995 36.8106 78.8418C35.9946 78.884 35.1787 78.7573 34.414 78.4698L33.844 78.2244L20.5677 71.5862C14.8305 68.7176 9.97432 64.3531 6.51168 58.9537C3.04905 53.5542 1.10846 47.32 0.894792 40.9091L0.875 39.7216V18.4931C0.875023 16.9934 1.30102 15.5246 2.1034 14.2576C2.90579 12.9906 4.05154 11.9776 5.40729 11.3364L6.01292 11.0791L33.7213 0.688516ZM36.5 8.10247L8.79167 18.4931V39.7216C8.79177 44.6894 10.1274 49.5657 12.6588 53.8401C15.1901 58.1146 18.8241 61.6298 23.1802 64.0179L24.1104 64.5048L36.5 70.6996L48.8896 64.5048C53.3337 62.2831 57.0987 58.9074 59.7903 54.7311C62.4819 50.5548 64.001 45.7316 64.1885 40.7666L64.2083 39.7216V18.4931L36.5 8.10247ZM50.089 26.1564C50.8013 25.4465 51.7571 25.0343 52.7623 25.0037C53.7676 24.973 54.7468 25.326 55.5011 25.9912C56.2554 26.6563 56.7283 27.5836 56.8237 28.5848C56.919 29.5859 56.6298 30.5858 56.0146 31.3814L55.686 31.7535L34.9681 52.4754C34.2135 53.23 33.2079 53.6811 32.1426 53.7431C31.0772 53.8051 30.0261 53.4737 29.189 52.8118L28.809 52.4754L19.2931 42.9596C18.5757 42.2489 18.157 41.2908 18.1227 40.2816C18.0885 39.2723 18.4413 38.2881 19.1089 37.5304C19.7766 36.7727 20.7086 36.2989 21.7141 36.2058C22.7197 36.1128 23.7228 36.4076 24.5181 37.03L24.8902 37.3585L31.8885 44.3568L50.089 26.1564Z" fill="#F84519"/>
</svg>
