<svg width="83" height="81" viewBox="0 0 83 81" fill="none" xmlns="http://www.w3.org/2000/svg">
<path d="M56.3332 8.83366C56.3332 4.47949 59.8957 0.916992 64.2498 0.916992C68.604 0.916992 72.1665 4.47949 72.1665 8.83366C72.1665 13.1878 68.604 16.7503 64.2498 16.7503C59.8957 16.7503 56.3332 13.1878 56.3332 8.83366ZM72.1665 80.0837V56.3337H82.0623L72.1665 26.2503C70.979 23.0837 68.2082 20.7087 64.6457 20.7087H64.2498C60.6873 20.7087 57.9165 23.0837 56.729 26.2503L53.1665 36.542C57.5207 38.917 60.2915 43.2712 60.2915 48.8128V80.0837H72.1665ZM42.479 38.5212C45.6457 38.5212 48.4165 35.7503 48.4165 32.5837C48.4165 29.417 45.6457 26.6462 42.479 26.6462C39.3123 26.6462 36.5415 29.417 36.5415 32.5837C36.5415 35.7503 39.3123 38.5212 42.479 38.5212ZM14.7707 16.7503C19.1248 16.7503 22.6873 13.1878 22.6873 8.83366C22.6873 4.47949 19.1248 0.916992 14.7707 0.916992C10.4165 0.916992 6.854 4.47949 6.854 8.83366C6.854 13.1878 10.4165 16.7503 14.7707 16.7503ZM22.6873 80.0837V52.3753H28.6248V28.6253C28.6248 24.2712 25.0623 20.7087 20.7082 20.7087H8.83317C4.479 20.7087 0.916504 24.2712 0.916504 28.6253V52.3753H6.854V80.0837H22.6873ZM48.4165 80.0837V64.2503H52.3748V48.417C52.3748 45.2503 49.604 42.4795 46.4373 42.4795H38.5207C35.354 42.4795 32.5832 45.2503 32.5832 48.417V64.2503H36.5415V80.0837H48.4165Z" fill="#F84519"/>
</svg>
